<svg xmlns="http://www.w3.org/2000/svg" width="1500" height="801" viewBox="0 0 1500 801" fill="none">
    <path fill-rule="evenodd" clip-rule="evenodd" d="M1168.32 558.407H612.96V0H890.64C1043.36 0 1168.3 125.648 1168.3 279.203V558.407H1168.32Z" fill="#94DD34"/>
    <path fill-rule="evenodd" clip-rule="evenodd" d="M0 0H555.382V558.407H277.68C124.962 558.407 0 432.759 0 279.203V0Z" fill="#94DD34"/>
    <path fill-rule="evenodd" clip-rule="evenodd" d="M1221.61 0C1375.7 0 1500 127.848 1500 279.203V558.407H1221.61V0Z" fill="#94DD34"/>
    <path fill-rule="evenodd" clip-rule="evenodd" d="M385.92 678.379L347.079 752.088V800.005H330.221V752.276L291.359 678.379H309.3L339.181 736.143L369.062 678.379H385.92Z" fill="#94DD34"/>
    <path d="M169.248 755.838L188.21 692.291L206.984 755.838H169.248ZM220.154 799.984H237.699L199.087 678.379H178.02L139.221 799.984H156.078L165.205 769.457H211.027L220.154 799.984Z" fill="#94DD34"/>
    <path d="M37.2366 678.466C35.7155 678.403 34.111 678.34 32.5273 678.34H0V799.965H16.6492V748.969H34.111C34.6528 748.969 35.2154 748.969 35.7571 748.906C40.779 748.843 46.5926 748.298 52.3646 746.748C65.659 743.123 78.3282 734.009 78.3282 712.764C78.3282 686.428 56.9697 679.346 37.2366 678.466ZM16.6492 691.414H31.5897C51.3644 691.414 60.012 697.637 60.012 712.785C60.012 729.232 50.3434 735.581 33.4859 735.581H16.6492V691.414Z" fill="#94DD34"/>
    <path d="M723.157 678.361H707.529V744.716C707.529 759.549 709.446 778.951 709.801 781.779L660.124 678.34H638.349V799.945H653.977V744.171C653.977 721.585 652.581 706.751 651.685 696.694L700.84 799.945H723.137V678.361H723.157Z" fill="#94DD34"/>
    <path d="M836.256 678.34H819.586V799.945H836.256V678.34Z" fill="#94DD34"/>
    <path d="M969.496 678.34C943.033 678.34 920.987 699.313 920.987 739.059C920.987 778.637 941.512 799.945 969.83 799.945C985.604 799.945 996.793 793.47 1003.25 786.808L995.272 776.583C988.667 781.528 981.374 786.305 970.33 786.305C952.18 786.305 938.094 773.001 938.094 739.059C938.094 703.587 952.847 691.645 970.497 691.645C978.644 691.645 985.77 694.368 993.064 700.34L1001.9 689.927C992.563 682.426 984.249 678.34 969.496 678.34Z" fill="#94DD34"/>
    <path d="M1105.83 755.82L1124.79 692.273L1143.57 755.82H1105.83ZM1156.74 799.945H1174.28L1135.67 678.34H1114.61L1075.81 799.945H1092.66L1101.79 769.418H1147.61L1156.74 799.945Z" fill="#94DD34"/>
    <path d="M1263.28 735.539V691.414H1278.2C1298.04 691.414 1306.64 697.595 1306.64 712.764C1306.64 729.19 1297 735.539 1280.14 735.539H1263.28ZM1311.04 799.945H1330.88L1298.23 745.407C1315.6 740.106 1324.38 729.861 1324.38 712.743C1324.38 689.969 1308.58 678.34 1278.39 678.34H1246.61V799.945H1263.28V748.403H1282.06L1311.04 799.945Z" fill="#94DD34"/>
    <path d="M1443.11 691.77C1462.43 691.77 1482.27 697.406 1482.27 738.535C1482.27 778.595 1463.31 786.724 1444.34 786.724H1430.82V691.77H1443.11ZM1439.43 678.34H1414.15V799.945H1443.11C1469.27 799.945 1499.98 788.128 1499.98 738.514C1499.98 688.062 1470.33 678.34 1439.43 678.34Z" fill="#94DD34"/>
    <path d="M543.267 678.34H526.701V758.313C526.701 776.877 518.596 786.074 501.509 786.074C484.61 786.074 476.483 776.877 476.483 758.313V678.34H460.084V759.529C460.084 783.288 474.399 799.945 501.488 799.945C528.223 799.945 543.246 783.288 543.246 759.529V678.34H543.267Z" fill="#94DD34"/>
    </svg>